<svg width="24" height="16" viewBox="0 0 24 16" fill="none" xmlns="http://www.w3.org/2000/svg">
<path fill-rule="evenodd" clip-rule="evenodd" d="M0.429626 8.36372C0.429626 8.14287 0.517482 7.93106 0.673866 7.7749C0.83025 7.61873 1.04235 7.531 1.26351 7.531H20.9315L15.6831 2.29148C15.5265 2.13512 15.4385 1.92304 15.4385 1.70191C15.4385 1.48078 15.5265 1.26871 15.6831 1.11234C15.8397 0.955978 16.052 0.868134 16.2735 0.868134C16.4949 0.868134 16.7073 0.955978 16.8639 1.11234L23.5349 7.77415C23.6126 7.85151 23.6742 7.9434 23.7162 8.04457C23.7583 8.14574 23.7799 8.25419 23.7799 8.36372C23.7799 8.47326 23.7583 8.58171 23.7162 8.68288C23.6742 8.78405 23.6126 8.87594 23.5349 8.95329L16.8639 15.6151C16.7073 15.7715 16.4949 15.8593 16.2735 15.8593C16.052 15.8593 15.8397 15.7715 15.6831 15.6151C15.5265 15.4587 15.4385 15.2467 15.4385 15.0255C15.4385 14.8044 15.5265 14.5923 15.6831 14.436L20.9315 9.19645H1.26351C1.04235 9.19645 0.83025 9.10872 0.673866 8.95255C0.517482 8.79638 0.429626 8.58458 0.429626 8.36372Z" fill="#3E007C"/>
</svg>
