<svg width="35" height="35" viewBox="0 0 35 35" fill="none" xmlns="http://www.w3.org/2000/svg">
<path d="M15.7062 26.6875C13.5344 26.6875 11.4113 26.0435 9.60539 24.8368C7.79954 23.6302 6.39204 21.9152 5.5609 19.9086C4.72975 17.902 4.51229 15.6941 4.936 13.5639C5.35972 11.4338 6.40558 9.4771 7.94133 7.94134C9.47709 6.40559 11.4338 5.35973 13.5639 4.93601C15.6941 4.5123 17.902 4.72976 19.9086 5.56091C21.9152 6.39205 23.6302 7.79955 24.8368 9.6054C26.0435 11.4113 26.6875 13.5344 26.6875 15.7063C26.6875 17.1483 26.4035 18.5763 25.8516 19.9086C25.2997 21.2409 24.4909 22.4515 23.4712 23.4712C22.4515 24.4909 21.2409 25.2998 19.9086 25.8516C18.5763 26.4035 17.1483 26.6875 15.7062 26.6875ZM15.7062 6.92709C13.9757 6.92709 12.2839 7.44027 10.845 8.40174C9.40608 9.3632 8.28457 10.7298 7.6223 12.3286C6.96004 13.9275 6.78676 15.6868 7.12438 17.3841C7.462 19.0815 8.29536 20.6406 9.51907 21.8643C10.7428 23.088 12.3019 23.9213 13.9992 24.259C15.6965 24.5966 17.4559 24.4233 19.0547 23.761C20.6536 23.0988 22.0201 21.9773 22.9816 20.5383C23.9431 19.0994 24.4562 17.4077 24.4562 15.6771C24.4562 13.3564 23.5344 11.1309 21.8934 9.48991C20.2525 7.84897 18.0269 6.92709 15.7062 6.92709Z" fill="#3E007C"/>
<path d="M29.1667 30.2604C29.023 30.2611 28.8806 30.2331 28.7478 30.178C28.6151 30.1229 28.4947 30.0418 28.3937 29.9396L22.3708 23.9167C22.1776 23.7093 22.0725 23.4351 22.0775 23.1517C22.0825 22.8684 22.1972 22.598 22.3976 22.3976C22.598 22.1972 22.8684 22.0824 23.1517 22.0774C23.4351 22.0724 23.7093 22.1776 23.9167 22.3708L29.9396 28.3937C30.1444 28.5988 30.2595 28.8768 30.2595 29.1667C30.2595 29.4565 30.1444 29.7345 29.9396 29.9396C29.8386 30.0418 29.7182 30.1229 29.5855 30.178C29.4528 30.2331 29.3104 30.2611 29.1667 30.2604Z" fill="#3E007C"/>
</svg>
